<?xml version="1.0" encoding="UTF-8"?>
<svg width="32px" height="32px" viewBox="0 0 32 32" version="1.1" xmlns="http://www.w3.org/2000/svg" xmlns:xlink="http://www.w3.org/1999/xlink">
    <!-- Generator: sketchtool 45.1 (43504) - http://www.bohemiancoding.com/sketch -->
    <title>B3F616E2-067A-40F5-A8EE-0ACD65395C05</title>
    <desc>Created with sketchtool.</desc>
    <defs>
        <path d="M7.67692308,5.95384615 L11.6769231,1.92307692 C11.8615385,1.73846154 11.8615385,1.46153846 11.6769231,1.27692308 L11.0615385,0.630769231 C10.8769231,0.446153846 10.6,0.446153846 10.4153846,0.630769231 L6.38461538,4.66153846 C6.26153846,4.78461538 6.07692308,4.78461538 5.95384615,4.66153846 L1.92307692,0.6 C1.73846154,0.415384615 1.46153846,0.415384615 1.27692308,0.6 L0.630769231,1.24615385 C0.446153846,1.43076923 0.446153846,1.70769231 0.630769231,1.89230769 L4.66153846,5.92307692 C4.78461538,6.04615385 4.78461538,6.23076923 4.66153846,6.35384615 L0.6,10.4153846 C0.415384615,10.6 0.415384615,10.8769231 0.6,11.0615385 L1.24615385,11.7076923 C1.43076923,11.8923077 1.70769231,11.8923077 1.89230769,11.7076923 L5.92307692,7.67692308 C6.04615385,7.55384615 6.23076923,7.55384615 6.35384615,7.67692308 L10.3846154,11.7076923 C10.5692308,11.8923077 10.8461538,11.8923077 11.0307692,11.7076923 L11.6769231,11.0615385 C11.8615385,10.8769231 11.8615385,10.6 11.6769231,10.4153846 L7.67692308,6.38461538 C7.55384615,6.26153846 7.55384615,6.07692308 7.67692308,5.95384615 L7.67692308,5.95384615 Z" id="path-1"></path>
    </defs>
    <g id="Symbols" stroke="none" stroke-width="1" fill="none" fill-rule="evenodd">
        <g id="ic-cross">
            <g id="icons/utility/close-copy" transform="translate(10.000000, 10.000000)">
                <mask id="mask-2" fill="white">
                    <use xlink:href="#path-1"></use>
                </mask>
                <use id="Mask" fill="#F65327" xlink:href="#path-1"></use>
            </g>
        </g>
    </g>
</svg>